# xmcd
#
# Track frame offsets: 
#        300
#        13837
#        26631
#        38667
#        50408
#        62726
#        73954
#        86690
#        99564
#        112002
#        123373
#        135234
#        147103
#        159591
#        170970
#        182889
#        196329
#        206053
#        216515
#        227681
#        238687
#        251638
#        263477
#        275160
#        286848
#
# Disc length: 3977 seconds
#
# Revision: 4
# Processed by: cddbd v1.5.2PL0 Copyright (c) Steve Scherf et al.
# Submitted via: ExactAudioCopy v1.0b1
#
DISCID=810f8519
DTITLE=Bobby "Blue" Bland - The "3B" Blues Boy - The Blues Years 1952 
DTITLE=1959
DYEAR=1991
DGENRE=Blues
TTITLE0=No Blow, No Show
TTITLE1=Wise Man's Blues
TTITLE2=Army Blues
TTITLE3=Lost Lover Blues
TTITLE4=It's My Life, Baby
TTITLE5=Honey Bee
TTITLE6=Time Out
TTITLE7=Million Miles From Nowhere
TTITLE8=Woke Up Screaming
TTITLE9=You've Got Bad Intentions
TTITLE10=I Can't Put You Down Baby
TTITLE11=I Don't Believe
TTITLE12=I Learned My Lesson
TTITLE13=I Smell trouble
TTITLE14=Don't Want No Woman
TTITLE15=Further Up The Road
TTITLE16=Teach Me (How to Love You)
TTITLE17=Bobby's Blues
TTITLE18=You Got Me (Where You Want Me)
TTITLE19=Loan A Helping Hand
TTITLE20=Last Night
TTITLE21=Little Boy Blue
TTITLE22=You Did Me Wrong
TTITLE23=I Lost Sight On The World
TTITLE24=Wishing Well
EXTD=
EXTT0=
EXTT1=
EXTT2=
EXTT3=
EXTT4=
EXTT5=
EXTT6=
EXTT7=
EXTT8=
EXTT9=
EXTT10=
EXTT11=
EXTT12=
EXTT13=
EXTT14=
EXTT15=
EXTT16=
EXTT17=
EXTT18=
EXTT19=
EXTT20=
EXTT21=
EXTT22=
EXTT23=
EXTT24=
PLAYORDER=
